<svg width="25" height="24" viewBox="0 0 25 24" fill="none" xmlns="http://www.w3.org/2000/svg">
<path fill-rule="evenodd" clip-rule="evenodd" d="M23.9976 7.05603C23.9413 5.78064 23.7347 4.90393 23.4388 4.14441C23.1335 3.33801 22.6639 2.61609 22.0485 2.01599C21.4473 1.40637 20.7193 0.932739 19.9209 0.632935C19.1555 0.337524 18.2818 0.131226 17.0043 0.0750732C15.7173 0.0140381 15.3088 -0.00012207 12.0446 -0.00012207C8.7804 -0.00012207 8.37183 0.0140381 7.0896 0.0701904C5.81213 0.126343 4.9339 0.332886 4.1731 0.628052C3.36511 0.932739 2.64191 1.40173 2.04071 2.01599C1.43011 2.61609 0.955872 3.34265 0.655151 4.13977C0.359253 4.90393 0.152649 5.776 0.0963135 7.05115C0.0352173 8.33582 0.0211182 8.74377 0.0211182 12.0023C0.0211182 15.2606 0.0352173 15.6686 0.0915527 16.9486C0.147888 18.2238 0.354675 19.1005 0.650574 19.86C0.955872 20.6664 1.43011 21.3883 2.04071 21.9886C2.64191 22.598 3.36987 23.0717 4.16833 23.3717C4.9339 23.6671 5.80737 23.8732 7.08502 23.9296C8.36707 23.986 8.77582 23.9999 12.04 23.9999C15.3042 23.9999 15.7128 23.986 16.995 23.9296C18.2725 23.8732 19.1507 23.6671 19.9115 23.3717C21.5273 22.7479 22.8047 21.4728 23.4294 19.86C23.7252 19.0958 23.9319 18.2238 23.9883 16.9486C24.0446 15.6686 24.0587 15.2606 24.0587 12.0023C24.0587 8.74377 24.054 8.33582 23.9976 7.05603ZM21.8325 16.8549C21.7808 18.027 21.5836 18.6598 21.4192 19.0819C21.0152 20.1273 20.1839 20.9572 19.1365 21.3605C18.7138 21.5245 18.0752 21.7213 16.9056 21.7728C15.6375 21.8292 15.2572 21.8431 12.0493 21.8431C8.84149 21.8431 8.45636 21.8292 7.19287 21.7728C6.01868 21.7213 5.38464 21.5245 4.96191 21.3605C4.44073 21.1681 3.96631 20.8634 3.58118 20.465C3.18195 20.0758 2.87671 19.6068 2.68402 19.0865C2.51965 18.6647 2.32245 18.027 2.27087 16.8595C2.21436 15.5936 2.20044 15.2137 2.20044 12.0116C2.20044 8.80945 2.21436 8.42493 2.27087 7.16394C2.32245 5.99182 2.51965 5.35876 2.68402 4.93689C2.87671 4.41638 3.18195 3.94299 3.58594 3.55847C3.97565 3.15979 4.44531 2.8551 4.96674 2.66296C5.3894 2.4989 6.0282 2.30212 7.19763 2.25037C8.4657 2.19421 8.84625 2.18005 12.0539 2.18005C15.2665 2.18005 15.6469 2.19421 16.9104 2.25037C18.0845 2.30212 18.7186 2.4989 19.1413 2.66296C19.6625 2.8551 20.137 3.15979 20.522 3.55847C20.9213 3.94763 21.2266 4.41638 21.4192 4.93689C21.5836 5.35876 21.7808 5.99646 21.8325 7.16394C21.8889 8.42981 21.903 8.80945 21.903 12.0116C21.903 15.2137 21.8889 15.589 21.8325 16.8549Z" fill="#712E1E"/>
<path fill-rule="evenodd" clip-rule="evenodd" d="M12.0446 5.83704C8.63495 5.83704 5.86847 8.59851 5.86847 12.0023C5.86847 15.4061 8.63495 18.1676 12.0446 18.1676C15.4545 18.1676 18.2207 15.4061 18.2207 12.0023C18.2207 8.59851 15.4545 5.83704 12.0446 5.83704ZM12.0446 16.0016C9.83252 16.0016 8.03827 14.2106 8.03827 12.0023C8.03827 9.79407 9.83252 8.00305 12.0446 8.00305C14.2568 8.00305 16.0508 9.79407 16.0508 12.0023C16.0508 14.2106 14.2568 16.0016 12.0446 16.0016Z" fill="#712E1E"/>
<path fill-rule="evenodd" clip-rule="evenodd" d="M19.9069 5.59314C19.9069 6.38806 19.2614 7.03259 18.4649 7.03259C17.6687 7.03259 17.0231 6.38806 17.0231 5.59314C17.0231 4.79822 17.6687 4.15393 18.4649 4.15393C19.2614 4.15393 19.9069 4.79822 19.9069 5.59314Z" fill="#712E1E"/>
</svg>
