<svg width="20" height="24" viewBox="0 0 20 24" fill="none" xmlns="http://www.w3.org/2000/svg">
<path fill-rule="evenodd" clip-rule="evenodd" d="M4.11462 11.7339C4.09356 11.812 3.79308 12.9666 3.76305 13.0415C1.93273 12.344 0.377982 9.80127 1.07708 6.46045C1.84045 2.85718 4.95873 0.00561524 10.3014 0.00561524V0C15.9181 0 19.0441 3.55103 19.1435 7.82227C19.2569 12.6929 15.2606 16.1924 11.7364 16.1924C11.4495 16.1924 8.98852 16.1484 7.80675 14.6182C7.40703 15.8135 5.90685 20.7266 4.45592 22.626L3.40746 24L3.19872 22.2842C3.00078 20.6521 3.83123 17.8318 4.53985 15.4248C4.60552 15.2019 4.67016 14.9824 4.73278 14.7678L4.77227 14.6328C5.10412 13.498 5.95135 10.6008 5.78747 10.1404C5.3493 8.9126 5.34032 7.79834 5.76 6.73389C6.26812 5.45264 7.28765 4.99683 8.07262 4.99683C9.11577 4.99683 9.92016 5.73438 9.85515 6.86792C9.78503 8.06909 9.18426 9.87061 8.71313 11.3743C8.52086 12.0171 8.61022 12.6187 8.97405 13.106C9.28936 13.5288 10.4916 13.9595 11.4412 13.9595C14.1039 13.9595 15.6622 10.5405 15.66 7.9541C15.6572 4.64966 13.0758 2.73096 9.62719 2.72852V2.73389C6.87273 2.73389 3.95531 4.08716 3.5241 6.84009C3.12438 8.71631 3.6455 11.0278 4.11462 11.7339Z" fill="#712E1E"/>
</svg>
