<svg id="Layer_3" height="512" viewBox="0 0 64 64" width="512" xmlns="http://www.w3.org/2000/svg" data-name="Layer 3"><path d="m62 21-30-19-30 19 3 4 27-17 27 17z" fill="#f4b2b0"/><path d="m62.54 20.16-30-19a1 1 0 0 0 -1.08 0l-30 19a1 1 0 0 0 -.26 1.44l3 4a1 1 0 0 0 1.33.25l2.47-1.56v37.71a1 1 0 0 0 1 1h46a1 1 0 0 0 1-1v-37.71l2.47 1.56a1 1 0 0 0 1.33-.25l3-4a1 1 0 0 0 -.26-1.44zm-40.54 21.84v2h-2v-2zm24 4v2h-28v-2zm-14-6v-6h10v6zm6 2v2h-2v-2zm-8 8v3a1 1 0 0 0 1 1h9v7h-16v-11zm10 2h-8v-2h8zm2-2h2v11h-2zm-20 0v11h-2v-11zm32 11h-8v-11h1a1 1 0 0 0 1-1v-4a1 1 0 0 0 -1-1h-7v-2h3a1 1 0 0 0 1-1v-8a1 1 0 0 0 -1-1h-12a1 1 0 0 0 -1 1v8a1 1 0 0 0 1 1h3v2h-10v-3a1 1 0 0 0 -1-1h-.13l1-1.45-1.66-1.1-1.21 1.75-1.17-1.75-1.66 1.1 1 1.45h-.17a1 1 0 0 0 -1 1v3h-1a1 1 0 0 0 -1 1v4a1 1 0 0 0 1 1h1v11h-8v-38l21-13.19v6.29a5 5 0 0 0 -4 4.9 1 1 0 0 0 1 1h1a3 3 0 0 0 6 0h1a1 1 0 0 0 1-1 5 5 0 0 0 -4-4.9v-6.29l21 13.19zm-21-39a1 1 0 0 1 -2 0zm-3.83-2a3 3 0 0 1 5.66 0zm29.58 3.66-26.22-16.51a1 1 0 0 0 -1.06 0l-26.22 16.51-1.8-2.39 28.55-18.09 28.55 18.09z" fill="#b3404a"/></svg>